<svg width="25" height="24" viewBox="0 0 25 24" fill="none" xmlns="http://www.w3.org/2000/svg">
<path d="M12.5476 15C14.2045 15 15.5476 13.6569 15.5476 12C15.5476 10.3431 14.2045 9 12.5476 9C10.8908 9 9.54761 10.3431 9.54761 12C9.54761 13.6569 10.8908 15 12.5476 15Z" fill="#313131" fill-opacity="0.8"/>
<path d="M23.5557 11.1844C22.3154 9.26625 20.7062 7.63687 18.9024 6.47203C16.9069 5.18203 14.7038 4.5 12.5316 4.5C10.5385 4.5 8.57866 5.06953 6.70647 6.19266C4.79725 7.33781 3.06757 9.01078 1.56522 11.1647C1.39562 11.4081 1.30222 11.6965 1.29687 11.9931C1.29153 12.2897 1.3745 12.5813 1.53522 12.8306C2.77319 14.768 4.36647 16.3997 6.1421 17.5486C8.14132 18.8437 10.2929 19.5 12.5316 19.5C14.7212 19.5 16.929 18.8236 18.916 17.5444C20.7188 16.3833 22.3248 14.7478 23.5604 12.8137C23.7156 12.5702 23.7976 12.2872 23.7968 11.9984C23.7959 11.7096 23.7123 11.4271 23.5557 11.1844V11.1844ZM12.5476 16.5C11.6575 16.5 10.7875 16.2361 10.0475 15.7416C9.30748 15.2471 8.7307 14.5443 8.39011 13.7221C8.04951 12.8998 7.9604 11.995 8.13403 11.1221C8.30767 10.2492 8.73625 9.44736 9.36558 8.81802C9.99492 8.18868 10.7967 7.7601 11.6697 7.58647C12.5426 7.41283 13.4474 7.50195 14.2696 7.84254C15.0919 8.18314 15.7947 8.75991 16.2892 9.49993C16.7836 10.24 17.0476 11.11 17.0476 12C17.0462 13.1931 16.5717 14.3369 15.728 15.1805C14.8844 16.0241 13.7406 16.4986 12.5476 16.5V16.5Z" fill="#313131" fill-opacity="0.8"/>
</svg>
