<svg width="20" height="20" viewBox="0 0 20 20" fill="none" xmlns="http://www.w3.org/2000/svg">
<g id="Gift">
<path id="Vector" d="M16.875 6.25H3.125C2.77982 6.25 2.5 6.52982 2.5 6.875V9.375C2.5 9.72018 2.77982 10 3.125 10H16.875C17.2202 10 17.5 9.72018 17.5 9.375V6.875C17.5 6.52982 17.2202 6.25 16.875 6.25Z" fill="#3687E2" fill-opacity="0.24" stroke="#3687E2" stroke-width="1.2" stroke-linecap="round" stroke-linejoin="round"/>
<g id="Vector_2">
<path d="M16.25 10V15.625C16.25 15.7908 16.1842 15.9497 16.0669 16.0669C15.9497 16.1842 15.7908 16.25 15.625 16.25H4.375C4.20924 16.25 4.05027 16.1842 3.93306 16.0669C3.81585 15.9497 3.75 15.7908 3.75 15.625V10" fill="#3687E2" fill-opacity="0.24"/>
<path d="M16.25 10V15.625C16.25 15.7908 16.1842 15.9497 16.0669 16.0669C15.9497 16.1842 15.7908 16.25 15.625 16.25H4.375C4.20924 16.25 4.05027 16.1842 3.93306 16.0669C3.81585 15.9497 3.75 15.7908 3.75 15.625V10" stroke="#3687E2" stroke-width="1.2" stroke-linecap="round" stroke-linejoin="round"/>
</g>
<path id="Vector_3" d="M10 6.25V16.25" stroke="#3687E2" stroke-width="1.2" stroke-linecap="round" stroke-linejoin="round"/>
<path id="Vector_4" d="M13.5391 5.36702C12.6484 6.24983 10 6.24983 10 6.24983C10 6.24983 10 3.6014 10.8828 2.71077C11.2351 2.35853 11.7128 2.16064 12.2109 2.16064C12.7091 2.16064 13.1868 2.35853 13.5391 2.71077C13.8913 3.06301 14.0892 3.54075 14.0892 4.0389C14.0892 4.53704 13.8913 5.01478 13.5391 5.36702V5.36702Z" fill="#3687E2" fill-opacity="0.24" stroke="#3687E2" stroke-width="1.2" stroke-linecap="round" stroke-linejoin="round"/>
<path id="Vector_5" d="M6.46028 5.36702C7.35091 6.24983 9.99935 6.24983 9.99935 6.24983C9.99935 6.24983 9.99935 3.6014 9.11653 2.71077C8.76429 2.35853 8.28655 2.16064 7.78841 2.16064C7.29026 2.16064 6.81252 2.35853 6.46028 2.71077C6.10804 3.06301 5.91016 3.54075 5.91016 4.0389C5.91016 4.53704 6.10804 5.01478 6.46028 5.36702V5.36702Z" fill="#3687E2" fill-opacity="0.24" stroke="#3687E2" stroke-width="1.2" stroke-linecap="round" stroke-linejoin="round"/>
</g>
</svg>
