<svg width="17" height="15" viewBox="0 0 17 15" fill="none" xmlns="http://www.w3.org/2000/svg">
<g id="Group 51418">
<path id="Vector" d="M1 2.28286V12.7176C1 13.0636 1.13742 13.3953 1.38203 13.64C1.62665 13.8846 1.95841 14.022 2.30435 14.022H15.3478C15.5208 14.022 15.6867 13.9533 15.809 13.831C15.9313 13.7087 16 13.5428 16 13.3698V4.23939C16 4.06642 15.9313 3.90053 15.809 3.77823C15.6867 3.65592 15.5208 3.58721 15.3478 3.58721H2.30435C1.95841 3.58721 1.62665 3.44979 1.38203 3.20518C1.13742 2.96056 1 2.6288 1 2.28286ZM1 2.28286C1 1.93693 1.13742 1.60516 1.38203 1.36055C1.62665 1.11594 1.95841 0.978516 2.30435 0.978516H13.3913" stroke="#1C1E21" stroke-width="1.5" stroke-linecap="round" stroke-linejoin="round"/>
<path id="Vector_2" d="M12.4128 9.78269C12.9531 9.78269 13.3911 9.34471 13.3911 8.80443C13.3911 8.26415 12.9531 7.82617 12.4128 7.82617C11.8726 7.82617 11.4346 8.26415 11.4346 8.80443C11.4346 9.34471 11.8726 9.78269 12.4128 9.78269Z" fill="#1C1E21"/>
</g>
</svg>
